<?xml version="1.0" standalone="no"?><!DOCTYPE svg PUBLIC "-//W3C//DTD SVG 1.1//EN" "http://www.w3.org/Graphics/SVG/1.1/DTD/svg11.dtd"><svg t="1738567130260" class="icon" viewBox="0 0 1024 1024" version="1.1" xmlns="http://www.w3.org/2000/svg" p-id="5968" xmlns:xlink="http://www.w3.org/1999/xlink" width="200" height="200"><path d="M921.003 409.344H649.13C754.347 20.224 576.597 0.341 576.597 0.341c-75.52 0-59.904 59.648-65.536 69.547 0 190.293-202.154 339.456-202.154 339.456v539.563c0 53.248 72.533 72.533 101.034 72.533h408.576c38.4 0 69.718-100.864 69.718-100.864 101.12-343.723 101.12-445.952 101.12-445.952 0-70.997-68.352-65.28-68.352-65.28z m-723.627 0.17H34.56C0.939 409.515 0.427 442.54 0.427 442.54l33.621 544.17c0 34.646 34.645 34.646 34.645 34.646h140.971c29.355 0 29.013-22.87 29.013-22.87V450.731c0-41.814-41.301-41.216-41.301-41.216z" fill="#D81E06" p-id="5969"></path></svg>